 <svg
        class="icon"
        id="menu"
        enable-background="new 0 0 24 24"
        height="512"
        viewBox="0 0 24 24"
        width="512"
        xmlns="http://www.w3.org/2000/svg"
      >
        <g>
          <path
            d="m16.5 8h-9c-.276 0-.5-.224-.5-.5s.224-.5.5-.5h9c.276 0 .5.224.5.5s-.224.5-.5.5z"
          />
        </g>
        <g>
          <path
            d="m16.5 12.5h-9c-.276 0-.5-.224-.5-.5s.224-.5.5-.5h9c.276 0 .5.224.5.5s-.224.5-.5.5z"
          />
        </g>
        <g>
          <path
            d="m16.5 17h-9c-.276 0-.5-.224-.5-.5s.224-.5.5-.5h9c.276 0 .5.224.5.5s-.224.5-.5.5z"
          />
        </g>
      </svg>